# xmcd
#
# Track frame offsets:
# 150
# 16969
# 37988
# 57906
# 74833
# 90945
# 104093
# 122336
# 136501
# 153139
# 170734
# 185978
# 201013
# 217849
# 231383
# 248849
# 261784
# 274695
# 289274
# 305204
#
# Disc length: 4277 seconds
#
#
# Revision: 0
# Processed by: cddbd v1.5.2PL0 Copyright (c) Steve Scherf et al.
# Submitted via: Nero 7, 2, 3, 3 
#
DISCID=2510b314
DTITLE=Verschiedene - Waltz
DYEAR=2007
DGENRE=Country
TTITLE0=Waltz
TTITLE1=Waltz
TTITLE2=Waltz
TTITLE3=Waltz
TTITLE4=Waltz
TTITLE5=Waltz
TTITLE6=Waltz
TTITLE7=Waltz
TTITLE8=Waltz
TTITLE9=Waltz
TTITLE10=Waltz
TTITLE11=Waltz
TTITLE12=Waltz
TTITLE13=Waltz
TTITLE14=Waltz
TTITLE15=Waltz
TTITLE16=Waltz
TTITLE17=Waltz
TTITLE18=Waltz
TTITLE19=Waltz
EXTD=
EXTT0=
EXTT1=
EXTT2=
EXTT3=
EXTT4=
EXTT5=
EXTT6=
EXTT7=
EXTT8=
EXTT9=
EXTT10=
EXTT11=
EXTT12=
EXTT13=
EXTT14=
EXTT15=
EXTT16=
EXTT17=
EXTT18=
EXTT19=
PLAYORDER=
